<svg width="264" height="64" viewBox="0 0 264 64" fill="none" xmlns="http://www.w3.org/2000/svg">
<path d="M81.1962 31.5745C76.2605 22.1214 65.6363 23.2256 65.5693 23.2256C66.1047 20.6992 66.1884 17.9888 65.5693 15.1612C63.7289 6.74546 56.317 0.404362 47.7005 0.0195454C37.9295 -0.415464 29.6811 6.46104 27.9577 15.6297C24.7286 13.9566 20.9641 13.1702 16.9821 13.622C7.41191 14.7095 0.0167311 23.0249 0 32.662C0 42.8847 7.34498 51.8191 18.0194 51.8191H18.1868V35.6067C16.7479 35.1549 15.6938 33.8164 15.6938 32.227C15.6938 30.2527 17.2833 28.6632 19.2576 28.6632C21.2318 28.6632 22.8213 30.2527 22.8213 32.227C22.8213 33.8164 21.7672 35.1549 20.3283 35.6067V51.8191H30.5845V40.6093C29.1457 40.1575 28.0916 38.819 28.0916 37.2296C28.0916 35.2553 29.6811 33.6659 31.6553 33.6659C33.6296 33.6659 35.2191 35.2553 35.2191 37.2296C35.2191 38.819 34.165 40.1575 32.7261 40.6093V51.8359H42.9823V23.326C41.5434 22.8743 40.4894 21.5358 40.4894 19.9463C40.4894 17.972 42.0788 16.3826 44.0531 16.3826C46.0274 16.3826 47.6169 17.972 47.6169 19.9463C47.6169 21.5358 46.5628 22.8743 45.1239 23.326V51.8526H49.039H55.3801V32.8795C53.9412 32.4277 52.8872 31.0893 52.8872 29.4998C52.8872 27.5255 54.4766 25.9361 56.4509 25.9361C58.4252 25.9361 60.0146 27.5255 60.0146 29.4998C60.0146 31.0893 58.9605 32.4277 57.5217 32.8795V51.8526H67.7779V42.7341C66.339 42.2824 65.2849 40.9439 65.2849 39.3545C65.2849 37.3802 66.8744 35.7907 68.8486 35.7907C70.8229 35.7907 72.4124 37.3802 72.4124 39.3545C72.4124 40.9439 71.3583 42.2824 69.9194 42.7341V51.8526H82.9865V39.7393C82.9865 36.9117 82.4176 34.0674 81.1126 31.5577L81.1962 31.5745Z" fill="url(#paint0_linear_483_275)"/>
<path d="M54.1253 57.9266C54.1253 56.3706 52.8704 55.1158 51.3145 55.1158H45.1574V51.8699H43.0158V55.1158H36.8253C35.2693 55.1158 34.0144 56.3706 34.0144 57.9266V61.1724C34.0144 62.7452 35.2693 64 36.8253 64H51.3145C52.8704 64 54.1253 62.7452 54.1253 61.1892V57.9433V57.9266Z" fill="url(#paint1_linear_483_275)"/>
<path d="M68.2966 57.9268H56.2837V61.1726H68.2966C69.2001 61.1726 69.9195 60.4532 69.9195 59.5497C69.9195 58.6462 69.2001 57.9268 68.2966 57.9268Z" fill="url(#paint2_linear_483_275)"/>
<path d="M18.1198 59.5497C18.1198 60.4532 18.8393 61.1726 19.7428 61.1726H31.8728V57.9268H19.7428C18.8393 57.9268 18.1198 58.6462 18.1198 59.5497Z" fill="url(#paint3_linear_483_275)"/>
<path d="M107.397 31.8087L99.3493 4.88828C99.3493 4.88828 99.3158 4.72097 99.3158 4.60385C99.3158 4.2525 99.5333 4.08519 99.9683 4.08519H105.674C106.109 4.08519 106.376 4.30269 106.477 4.7377L111.044 22.7069C111.095 22.8073 111.161 22.8743 111.228 22.8743C111.295 22.8743 111.345 22.8241 111.362 22.7069L115.863 4.7377C115.963 4.30269 116.248 4.08519 116.666 4.08519H122.254C122.522 4.08519 122.706 4.15211 122.823 4.28596C122.923 4.4198 122.94 4.62058 122.856 4.88828L114.725 31.8087C114.625 32.2102 114.34 32.411 113.872 32.411H108.2C107.765 32.411 107.497 32.2102 107.397 31.8087Z" fill="url(#paint4_linear_483_275)"/>
<path d="M126.085 32.2099C125.952 32.076 125.885 31.892 125.885 31.6912V4.82097C125.885 4.60347 125.952 4.43616 126.085 4.30231C126.219 4.16846 126.403 4.10153 126.604 4.10153H131.858C132.075 4.10153 132.242 4.16846 132.376 4.30231C132.51 4.43616 132.577 4.6202 132.577 4.82097V31.6912C132.577 31.9087 132.51 32.076 132.376 32.2099C132.242 32.3437 132.058 32.4106 131.858 32.4106H126.604C126.387 32.4106 126.219 32.3437 126.085 32.2099Z" fill="url(#paint5_linear_483_275)"/>
<path d="M156.519 9.62359C156.385 9.75743 156.201 9.82436 156.001 9.82436H143.62C143.436 9.82436 143.335 9.92475 143.335 10.1088V14.9274C143.335 15.1114 143.436 15.2118 143.62 15.2118H151.433C151.651 15.2118 151.818 15.2787 151.952 15.4126C152.086 15.5464 152.152 15.7305 152.152 15.9312V20.1809C152.152 20.3984 152.086 20.5658 151.952 20.6996C151.818 20.8335 151.634 20.9004 151.433 20.9004H143.62C143.436 20.9004 143.335 21.0008 143.335 21.1848V26.3715C143.335 26.5555 143.436 26.6559 143.62 26.6559H156.001C156.218 26.6559 156.385 26.7228 156.519 26.8567C156.653 26.9905 156.72 27.1746 156.72 27.3753V31.6585C156.72 31.876 156.653 32.0433 156.519 32.1772C156.385 32.311 156.201 32.3779 156.001 32.3779H137.345C137.128 32.3779 136.961 32.311 136.827 32.1772C136.693 32.0433 136.626 31.8593 136.626 31.6585V4.78829C136.626 4.57078 136.693 4.40348 136.827 4.26963C136.961 4.13578 137.145 4.06885 137.345 4.06885H156.001C156.218 4.06885 156.385 4.13578 156.519 4.26963C156.653 4.40348 156.72 4.58751 156.72 4.78829V9.07145C156.72 9.28896 156.653 9.45628 156.519 9.59013V9.62359Z" fill="url(#paint6_linear_483_275)"/>
<path d="M180.729 4.28596C180.863 4.4198 180.93 4.60386 180.93 4.80463V9.13799C180.93 9.35549 180.863 9.52281 180.729 9.65666C180.596 9.79051 180.412 9.85743 180.211 9.85743H173.451C173.267 9.85743 173.167 9.95781 173.167 10.1419V31.6748C173.167 31.8924 173.1 32.0597 172.966 32.1935C172.832 32.3274 172.648 32.3943 172.447 32.3943H167.194C166.976 32.3943 166.809 32.3274 166.675 32.1935C166.541 32.0597 166.474 31.8756 166.474 31.6748V10.1419C166.474 9.95781 166.374 9.85743 166.19 9.85743H159.682C159.464 9.85743 159.297 9.79051 159.163 9.65666C159.029 9.52281 158.962 9.33876 158.962 9.13799V4.80463C158.962 4.58712 159.029 4.4198 159.163 4.28596C159.297 4.15211 159.481 4.08519 159.682 4.08519H180.244C180.462 4.08519 180.629 4.15211 180.763 4.28596H180.729Z" fill="url(#paint7_linear_483_275)"/>
<path d="M184.076 32.2099C183.942 32.076 183.875 31.892 183.875 31.6912V4.82097C183.875 4.60347 183.942 4.43616 184.076 4.30231C184.21 4.16846 184.394 4.10153 184.595 4.10153H189.58C189.965 4.10153 190.233 4.26884 190.434 4.58674L199.335 19.6448C199.385 19.7451 199.452 19.7953 199.535 19.7619C199.619 19.7284 199.653 19.6615 199.653 19.5109L199.619 4.82097C199.619 4.60347 199.686 4.43616 199.82 4.30231C199.954 4.16846 200.138 4.10153 200.339 4.10153H205.525C205.743 4.10153 205.91 4.16846 206.044 4.30231C206.178 4.43616 206.245 4.6202 206.245 4.82097V31.6912C206.245 31.9087 206.178 32.076 206.044 32.2099C205.91 32.3437 205.726 32.4106 205.525 32.4106H200.539C200.188 32.4106 199.904 32.2433 199.686 31.9254L190.785 16.6666C190.735 16.5328 190.651 16.4826 190.568 16.4993C190.467 16.5328 190.434 16.5997 190.434 16.7503L190.517 31.6912C190.517 31.9087 190.45 32.076 190.317 32.2099C190.183 32.3437 189.999 32.4106 189.798 32.4106H184.611C184.394 32.4106 184.226 32.3437 184.093 32.2099H184.076Z" fill="url(#paint8_linear_483_275)"/>
<path d="M228.162 31.8087L227.225 28.4959C227.192 28.3286 227.091 28.2449 226.907 28.2449H217.755C217.588 28.2449 217.488 28.3286 217.437 28.4959L216.5 31.8087C216.4 32.2102 216.116 32.411 215.697 32.411H209.992C209.724 32.411 209.54 32.3441 209.423 32.1935C209.323 32.0429 209.306 31.8421 209.39 31.6079L217.889 4.68751C218.023 4.28596 218.307 4.08519 218.742 4.08519H225.903C226.355 4.08519 226.639 4.28596 226.757 4.68751L235.29 31.6079C235.29 31.6079 235.323 31.7585 235.323 31.8923C235.323 32.2437 235.105 32.411 234.67 32.411H228.965C228.53 32.411 228.262 32.2102 228.162 31.8087ZM219.094 22.8241C219.094 22.9914 219.177 23.075 219.345 23.075H225.334C225.435 23.075 225.519 23.0416 225.552 22.9746C225.585 22.9077 225.602 22.8408 225.569 22.7571L222.49 11.999C222.457 11.8652 222.423 11.7982 222.356 11.7982C222.289 11.7982 222.222 11.8652 222.172 11.999L219.094 22.7571V22.8408V22.8241Z" fill="url(#paint9_linear_483_275)"/>
<path d="M238.602 32.2099C238.468 32.076 238.402 31.892 238.402 31.6912V4.82097C238.402 4.60347 238.468 4.43616 238.602 4.30231C238.736 4.16846 238.92 4.10153 239.121 4.10153H244.341C244.726 4.10153 244.994 4.26884 245.194 4.58674L250.582 13.2869C250.716 13.471 250.85 13.471 250.983 13.2869L256.404 4.58674C256.588 4.26884 256.873 4.10153 257.258 4.10153H262.478C262.695 4.10153 262.862 4.16846 262.996 4.30231C263.13 4.43616 263.197 4.6202 263.197 4.82097V31.6912C263.197 31.9087 263.13 32.076 262.996 32.2099C262.862 32.3437 262.678 32.4106 262.478 32.4106H257.224C257.007 32.4106 256.839 32.3437 256.705 32.2099C256.572 32.076 256.505 31.892 256.505 31.6912V15.8635C256.505 15.7297 256.471 15.646 256.388 15.6126C256.304 15.5791 256.237 15.646 256.187 15.7799L252.907 21.1171C252.723 21.435 252.439 21.6023 252.054 21.6023H249.578C249.193 21.6023 248.909 21.435 248.725 21.1171L245.445 15.7799C245.395 15.646 245.328 15.5958 245.245 15.6126C245.161 15.646 245.127 15.713 245.127 15.8635V31.6912C245.127 31.9087 245.061 32.076 244.927 32.2099C244.793 32.3437 244.609 32.4106 244.408 32.4106H239.154C238.937 32.4106 238.77 32.3437 238.636 32.2099H238.602Z" fill="url(#paint10_linear_483_275)"/>
<path d="M98.948 59.5992C98.948 59.5992 98.8476 59.4487 98.8476 59.3316V43.3366C98.8476 43.2194 98.8811 43.1358 98.948 43.0689C99.0149 43.002 99.0986 42.9685 99.2157 42.9685H104.871C106.527 42.9685 107.849 43.4035 108.836 44.2735C109.823 45.1436 110.308 46.298 110.308 47.7536V54.9145C110.308 56.3701 109.823 57.5246 108.836 58.3946C107.849 59.2646 106.527 59.6996 104.871 59.6996H99.2157C99.0986 59.6996 99.0149 59.6662 98.948 59.5992ZM101.257 57.7086H104.954C105.875 57.7086 106.611 57.4242 107.163 56.8553C107.715 56.2865 107.999 55.5336 108.016 54.5799V48.0882C108.016 47.1346 107.749 46.3817 107.196 45.8128C106.644 45.2439 105.908 44.9595 104.971 44.9595H101.274C101.274 44.9595 101.157 44.993 101.157 45.0766V57.5915C101.157 57.5915 101.19 57.7086 101.274 57.7086H101.257Z" fill="url(#paint11_linear_483_275)"/>
<path d="M122.756 59.4144L121.92 56.7375C121.92 56.7375 121.853 56.6371 121.803 56.6371H115.144C115.144 56.6371 115.06 56.6705 115.027 56.7375L114.19 59.4144C114.123 59.5985 113.989 59.6989 113.789 59.6989H112.099C111.831 59.6989 111.731 59.565 111.814 59.2973L116.968 43.2856C117.034 43.1016 117.168 43.0012 117.369 43.0012H119.561C119.762 43.0012 119.895 43.1016 119.962 43.2856L125.166 59.2973C125.166 59.2973 125.183 59.381 125.183 59.4479C125.183 59.6152 125.082 59.7156 124.865 59.7156H123.141C122.941 59.7156 122.807 59.6152 122.74 59.4312L122.756 59.4144ZM115.746 54.8301H121.217C121.318 54.8301 121.351 54.7799 121.318 54.6795L118.557 45.7785C118.557 45.7785 118.524 45.6782 118.49 45.6782C118.457 45.6782 118.44 45.7116 118.423 45.7785L115.679 54.6795C115.679 54.7799 115.679 54.8301 115.78 54.8301H115.746Z" fill="url(#paint12_linear_483_275)"/>
<path d="M137.011 43.0852C137.011 43.0852 137.112 43.2358 137.112 43.3529V44.6412C137.112 44.7584 137.078 44.842 137.011 44.9089C136.944 44.9758 136.861 45.0093 136.744 45.0093H132.31C132.31 45.0093 132.193 45.0428 132.193 45.1264V59.3479C132.193 59.465 132.159 59.5487 132.092 59.6156C132.025 59.6825 131.942 59.716 131.825 59.716H130.252C130.135 59.716 130.051 59.6825 129.984 59.6156C129.917 59.5487 129.884 59.465 129.884 59.3479V45.1264C129.884 45.1264 129.85 45.0093 129.767 45.0093H125.534C125.417 45.0093 125.333 44.9758 125.266 44.9089C125.199 44.842 125.166 44.7584 125.166 44.6412V43.3529C125.166 43.2358 125.199 43.1522 125.266 43.0852C125.333 43.0183 125.417 42.9848 125.534 42.9848H136.727C136.844 42.9848 136.928 43.0183 136.995 43.0852H137.011Z" fill="url(#paint13_linear_483_275)"/>
<path d="M148.372 59.4144L147.535 56.7375C147.535 56.7375 147.469 56.6371 147.418 56.6371H140.759C140.759 56.6371 140.676 56.6705 140.642 56.7375L139.806 59.4144C139.739 59.5985 139.605 59.6989 139.404 59.6989H137.714C137.447 59.6989 137.346 59.565 137.43 59.2973L142.583 43.2856C142.65 43.1016 142.784 43.0012 142.985 43.0012H145.176C145.377 43.0012 145.511 43.1016 145.578 43.2856L150.781 59.2973C150.781 59.2973 150.798 59.381 150.798 59.4479C150.798 59.6152 150.698 59.7156 150.48 59.7156H148.757C148.556 59.7156 148.422 59.6152 148.355 59.4312L148.372 59.4144ZM141.362 54.8301H146.833C146.933 54.8301 146.967 54.7799 146.933 54.6795L144.172 45.7785C144.172 45.7785 144.139 45.6782 144.106 45.6782C144.072 45.6782 144.055 45.7116 144.039 45.7785L141.295 54.6795C141.295 54.7799 141.295 54.8301 141.395 54.8301H141.362Z" fill="url(#paint14_linear_483_275)"/>
<path d="M160.669 59.2306C159.782 58.7788 159.096 58.1263 158.611 57.2898C158.126 56.4532 157.875 55.4995 157.875 54.412V48.2215C157.875 47.134 158.109 46.197 158.611 45.3772C159.096 44.5574 159.782 43.9216 160.669 43.4698C161.556 43.0181 162.559 42.7839 163.714 42.7839C164.868 42.7839 165.872 43.0014 166.742 43.4364C167.612 43.8714 168.298 44.4905 168.783 45.2935C169.269 46.0966 169.52 47.0168 169.52 48.0709C169.52 48.2382 169.402 48.3219 169.168 48.3553L167.595 48.4557H167.495C167.495 48.4557 167.344 48.4557 167.311 48.4055C167.261 48.3721 167.244 48.3386 167.244 48.3051V48.1546C167.244 47.134 166.926 46.3141 166.29 45.6951C165.655 45.076 164.801 44.7581 163.731 44.7581C162.66 44.7581 161.807 45.076 161.171 45.6951C160.535 46.3141 160.2 47.134 160.2 48.1546V54.4957C160.2 55.5163 160.518 56.3361 161.171 56.9551C161.823 57.5742 162.677 57.8921 163.731 57.8921C164.785 57.8921 165.655 57.5742 166.29 56.9551C166.926 56.3361 167.244 55.5163 167.244 54.4957C167.244 54.3953 167.278 54.3284 167.345 54.2782C167.411 54.228 167.495 54.2112 167.612 54.228L169.185 54.3284C169.419 54.3618 169.536 54.3953 169.536 54.4455V54.5626C169.536 55.6166 169.285 56.5369 168.8 57.34C168.315 58.1431 167.629 58.7621 166.759 59.2138C165.889 59.6656 164.868 59.8831 163.731 59.8831C162.593 59.8831 161.572 59.6489 160.686 59.1971L160.669 59.2306Z" fill="url(#paint15_linear_483_275)"/>
<path d="M175.192 59.1971C174.305 58.7119 173.603 58.0427 173.117 57.1726C172.632 56.3026 172.381 55.2988 172.381 54.1778V48.4892C172.381 47.3515 172.632 46.3643 173.117 45.511C173.603 44.6577 174.305 43.9885 175.192 43.5033C176.079 43.0181 177.116 42.7839 178.271 42.7839C179.425 42.7839 180.479 43.0181 181.366 43.5033C182.253 43.9885 182.955 44.641 183.441 45.511C183.926 46.3643 184.177 47.3682 184.177 48.4892V54.1778C184.177 55.3155 183.926 56.3026 183.441 57.1726C182.939 58.0427 182.253 58.7119 181.366 59.1971C180.479 59.6823 179.442 59.9165 178.271 59.9165C177.1 59.9165 176.079 59.6823 175.192 59.1971ZM180.897 56.9217C181.567 56.2524 181.901 55.3657 181.901 54.2782V48.4725C181.901 47.3515 181.567 46.4647 180.897 45.7955C180.228 45.1262 179.358 44.7749 178.271 44.7749C177.183 44.7749 176.313 45.1095 175.661 45.7955C174.991 46.4647 174.673 47.3682 174.673 48.4725V54.2782C174.673 55.3824 175.008 56.2524 175.661 56.9217C176.313 57.5909 177.2 57.9255 178.271 57.9255C179.341 57.9255 180.228 57.5909 180.897 56.9217Z" fill="url(#paint16_linear_483_275)"/>
<path d="M187.807 59.5992C187.807 59.5992 187.706 59.4487 187.706 59.3316V43.3366C187.706 43.2194 187.74 43.1358 187.807 43.0689C187.874 43.002 187.957 42.9685 188.075 42.9685H189.681C189.865 42.9685 190.015 43.0522 190.116 43.2027L194.131 49.594C194.181 49.6944 194.232 49.6944 194.282 49.594L198.314 43.2027C198.414 43.0354 198.548 42.9685 198.749 42.9685H200.355C200.472 42.9685 200.556 43.002 200.623 43.0689C200.69 43.1358 200.723 43.2194 200.723 43.3366V59.3316C200.723 59.4487 200.69 59.5323 200.623 59.5992C200.556 59.6662 200.472 59.6996 200.355 59.6996H198.782C198.665 59.6996 198.582 59.6662 198.515 59.5992C198.448 59.5323 198.414 59.4487 198.414 59.3316V47.2015C198.414 47.2015 198.414 47.1011 198.364 47.1011C198.331 47.1011 198.297 47.1011 198.264 47.168L195.018 52.4718C194.918 52.6391 194.784 52.706 194.583 52.706H193.813C193.629 52.706 193.479 52.6224 193.378 52.4718L190.149 47.168C190.149 47.168 190.082 47.1011 190.049 47.1011C190.015 47.1011 189.999 47.1513 189.999 47.2015V59.3316C189.999 59.4487 189.965 59.5323 189.898 59.5992C189.831 59.6662 189.748 59.6996 189.631 59.6996H188.058C187.941 59.6996 187.857 59.6662 187.79 59.5992H187.807Z" fill="url(#paint17_linear_483_275)"/>
<path d="M204.705 59.5992C204.705 59.5992 204.605 59.4487 204.605 59.3316V43.3366C204.605 43.2194 204.639 43.1358 204.705 43.0689C204.772 43.002 204.856 42.9685 204.973 42.9685H206.579C206.763 42.9685 206.914 43.0522 207.014 43.2027L211.03 49.594C211.08 49.6944 211.13 49.6944 211.18 49.594L215.213 43.2027C215.313 43.0354 215.447 42.9685 215.648 42.9685H217.254C217.371 42.9685 217.455 43.002 217.521 43.0689C217.588 43.1358 217.622 43.2194 217.622 43.3366V59.3316C217.622 59.4487 217.588 59.5323 217.521 59.5992C217.455 59.6662 217.371 59.6996 217.254 59.6996H215.681C215.564 59.6996 215.48 59.6662 215.413 59.5992C215.346 59.5323 215.313 59.4487 215.313 59.3316V47.2015C215.313 47.2015 215.313 47.1011 215.263 47.1011C215.229 47.1011 215.196 47.1011 215.162 47.168L211.917 52.4718C211.816 52.6391 211.682 52.706 211.482 52.706H210.712C210.528 52.706 210.377 52.6224 210.277 52.4718L207.048 47.168C207.048 47.168 206.981 47.1011 206.947 47.1011C206.914 47.1011 206.897 47.1513 206.897 47.2015V59.3316C206.897 59.4487 206.864 59.5323 206.797 59.5992C206.73 59.6662 206.646 59.6996 206.529 59.6996H204.956C204.839 59.6996 204.756 59.6662 204.689 59.5992H204.705Z" fill="url(#paint18_linear_483_275)"/>
<path d="M223.846 59.1971C222.959 58.7119 222.256 58.0427 221.771 57.1726C221.269 56.3026 221.035 55.2988 221.035 54.1778V48.4892C221.035 47.3515 221.286 46.3643 221.771 45.511C222.256 44.6577 222.959 43.9885 223.846 43.5033C224.732 43.0181 225.77 42.7839 226.924 42.7839C228.079 42.7839 229.133 43.0181 230.019 43.5033C230.906 43.9885 231.609 44.641 232.094 45.511C232.596 46.3643 232.83 47.3682 232.83 48.4892V54.1778C232.83 55.3155 232.579 56.3026 232.094 57.1726C231.609 58.0427 230.906 58.7119 230.019 59.1971C229.133 59.6823 228.095 59.9165 226.924 59.9165C225.753 59.9165 224.732 59.6823 223.846 59.1971ZM229.551 56.9217C230.22 56.2524 230.555 55.3657 230.555 54.2782V48.4725C230.555 47.3515 230.22 46.4647 229.551 45.7955C228.882 45.1262 228.012 44.7749 226.924 44.7749C225.837 44.7749 224.967 45.1095 224.314 45.7955C223.662 46.4647 223.327 47.3682 223.327 48.4725V54.2782C223.327 55.3824 223.662 56.2524 224.314 56.9217C224.967 57.5909 225.853 57.9255 226.924 57.9255C227.995 57.9255 228.882 57.5909 229.551 56.9217Z" fill="url(#paint19_linear_483_275)"/>
<path d="M236.428 59.5992C236.428 59.5992 236.327 59.4487 236.327 59.3316V43.3366C236.327 43.2194 236.361 43.1358 236.428 43.0689C236.495 43.002 236.578 42.9685 236.695 42.9685H238.218C238.402 42.9685 238.553 43.0522 238.653 43.2027L245.964 55.0149C245.964 55.0149 246.031 55.0818 246.065 55.0818C246.098 55.0818 246.115 55.0316 246.115 54.9815V43.3366C246.115 43.2194 246.148 43.1358 246.215 43.0689C246.282 43.002 246.366 42.9685 246.483 42.9685H248.056C248.173 42.9685 248.257 43.002 248.323 43.0689C248.39 43.1358 248.424 43.2194 248.424 43.3366V59.3316C248.424 59.4487 248.39 59.5323 248.323 59.5992C248.257 59.6662 248.173 59.6996 248.056 59.6996H246.5C246.316 59.6996 246.165 59.616 246.065 59.4654L238.753 47.5863C238.753 47.5863 238.686 47.5194 238.653 47.5194C238.619 47.5194 238.603 47.5696 238.603 47.6198V59.3483C238.619 59.4654 238.603 59.5491 238.536 59.616C238.469 59.6829 238.385 59.7164 238.268 59.7164H236.695C236.578 59.7164 236.495 59.6829 236.428 59.616V59.5992Z" fill="url(#paint20_linear_483_275)"/>
<path d="M254.297 59.3138C253.41 58.929 252.724 58.3936 252.239 57.6909C251.754 56.9882 251.503 56.1684 251.503 55.2314V54.6626C251.503 54.5455 251.536 54.4618 251.603 54.3949C251.67 54.328 251.754 54.2945 251.871 54.2945H253.394C253.511 54.2945 253.594 54.328 253.661 54.3949C253.728 54.4618 253.762 54.5455 253.762 54.6626V55.1143C253.762 55.9342 254.113 56.5867 254.816 57.1221C255.518 57.6575 256.455 57.9084 257.61 57.9084C258.714 57.9084 259.534 57.6742 260.086 57.2224C260.638 56.7707 260.923 56.1517 260.923 55.4155C260.923 54.9303 260.772 54.4953 260.488 54.1439C260.203 53.7926 259.785 53.4747 259.233 53.1735C258.681 52.8724 257.877 52.521 256.84 52.1194C255.686 51.6677 254.765 51.2662 254.08 50.8981C253.41 50.53 252.841 50.0448 252.39 49.4592C251.938 48.8569 251.72 48.104 251.72 47.2005C251.72 45.8286 252.206 44.7578 253.193 43.9714C254.163 43.185 255.502 42.8002 257.175 42.8002C258.346 42.8002 259.383 43.001 260.27 43.4025C261.157 43.8041 261.843 44.3562 262.328 45.0757C262.813 45.7951 263.064 46.6149 263.064 47.5519V47.9032C263.064 48.0203 263.031 48.104 262.964 48.1709C262.897 48.2378 262.813 48.2713 262.696 48.2713H261.14C261.023 48.2713 260.939 48.2378 260.872 48.1876C260.805 48.1375 260.772 48.0538 260.772 47.9534V47.669C260.772 46.8492 260.437 46.1464 259.785 45.611C259.132 45.0756 258.212 44.7912 257.058 44.7912C256.071 44.7912 255.301 44.992 254.765 45.3935C254.23 45.7951 253.946 46.3807 253.946 47.1503C253.946 47.669 254.08 48.104 254.347 48.4386C254.615 48.7732 255.016 49.0744 255.552 49.3254C256.087 49.593 256.907 49.9277 257.995 50.346C259.132 50.7977 260.036 51.1993 260.738 51.5673C261.441 51.9354 262.027 52.4373 262.479 53.0397C262.947 53.6587 263.165 54.4116 263.165 55.3151C263.165 56.2186 262.93 57.0217 262.479 57.7077C262.01 58.3936 261.341 58.929 260.471 59.3138C259.601 59.6987 258.563 59.8827 257.392 59.8827C256.221 59.8827 255.15 59.6987 254.264 59.3138H254.297Z" fill="url(#paint21_linear_483_275)"/>
<defs>
<linearGradient id="paint0_linear_483_275" x1="-0.987137" y1="2.8973" x2="89.6622" y2="65.02" gradientUnits="userSpaceOnUse">
<stop stop-color="#00A0E1"/>
<stop offset="1" stop-color="#00C8C4"/>
</linearGradient>
<linearGradient id="paint1_linear_483_275" x1="-13.0168" y1="20.4321" x2="77.6492" y2="82.5549" gradientUnits="userSpaceOnUse">
<stop stop-color="#00A0E1"/>
<stop offset="1" stop-color="#00C8C4"/>
</linearGradient>
<linearGradient id="paint2_linear_483_275" x1="-7.11058" y1="11.8324" x2="83.5555" y2="73.9551" gradientUnits="userSpaceOnUse">
<stop stop-color="#00A0E1"/>
<stop offset="1" stop-color="#00C8C4"/>
</linearGradient>
<linearGradient id="paint3_linear_483_275" x1="-18.9229" y1="29.0823" x2="71.7432" y2="91.1882" gradientUnits="userSpaceOnUse">
<stop stop-color="#00A0E1"/>
<stop offset="1" stop-color="#00C8C4"/>
</linearGradient>
<linearGradient id="paint4_linear_483_275" x1="-3.91516" y1="-19.7567" x2="262.243" y2="65.1369" gradientUnits="userSpaceOnUse">
<stop stop-color="#00A0E1"/>
<stop offset="1" stop-color="#00C8C4"/>
</linearGradient>
<linearGradient id="paint5_linear_483_275" x1="-2.6272" y1="-23.806" x2="263.532" y2="61.0878" gradientUnits="userSpaceOnUse">
<stop stop-color="#00A0E1"/>
<stop offset="1" stop-color="#00C8C4"/>
</linearGradient>
<linearGradient id="paint6_linear_483_275" x1="-1.02126" y1="-28.858" x2="265.138" y2="56.0359" gradientUnits="userSpaceOnUse">
<stop stop-color="#00A0E1"/>
<stop offset="1" stop-color="#00C8C4"/>
</linearGradient>
<linearGradient id="paint7_linear_483_275" x1="1.47191" y1="-36.6719" x2="267.631" y2="48.222" gradientUnits="userSpaceOnUse">
<stop stop-color="#00A0E1"/>
<stop offset="1" stop-color="#00C8C4"/>
</linearGradient>
<linearGradient id="paint8_linear_483_275" x1="3.44612" y1="-42.8628" x2="269.605" y2="42.0146" gradientUnits="userSpaceOnUse">
<stop stop-color="#00A0E1"/>
<stop offset="1" stop-color="#00C8C4"/>
</linearGradient>
<linearGradient id="paint9_linear_483_275" x1="5.57107" y1="-49.4879" x2="271.73" y2="35.4059" gradientUnits="userSpaceOnUse">
<stop stop-color="#00A0E1"/>
<stop offset="1" stop-color="#00C8C4"/>
</linearGradient>
<linearGradient id="paint10_linear_483_275" x1="8.59974" y1="-59.0083" x2="274.758" y2="25.8853" gradientUnits="userSpaceOnUse">
<stop stop-color="#00A0E1"/>
<stop offset="1" stop-color="#00C8C4"/>
</linearGradient>
<linearGradient id="paint11_linear_483_275" x1="-14.656" y1="13.94" x2="251.485" y2="98.8332" gradientUnits="userSpaceOnUse">
<stop stop-color="#00A0E1"/>
<stop offset="1" stop-color="#00C8C4"/>
</linearGradient>
<linearGradient id="paint12_linear_483_275" x1="-13.4516" y1="10.1245" x2="252.707" y2="95.0014" gradientUnits="userSpaceOnUse">
<stop stop-color="#00A0E1"/>
<stop offset="1" stop-color="#00C8C4"/>
</linearGradient>
<linearGradient id="paint13_linear_483_275" x1="-11.8124" y1="5.00517" x2="254.347" y2="89.8993" gradientUnits="userSpaceOnUse">
<stop stop-color="#00A0E1"/>
<stop offset="1" stop-color="#00C8C4"/>
</linearGradient>
<linearGradient id="paint14_linear_483_275" x1="-11.0756" y1="2.69584" x2="255.083" y2="87.5895" gradientUnits="userSpaceOnUse">
<stop stop-color="#00A0E1"/>
<stop offset="1" stop-color="#00C8C4"/>
</linearGradient>
<linearGradient id="paint15_linear_483_275" x1="-9.01844" y1="-3.74536" x2="257.124" y2="81.1486" gradientUnits="userSpaceOnUse">
<stop stop-color="#00A0E1"/>
<stop offset="1" stop-color="#00C8C4"/>
</linearGradient>
<linearGradient id="paint16_linear_483_275" x1="-7.6797" y1="-7.96162" x2="258.48" y2="76.9326" gradientUnits="userSpaceOnUse">
<stop stop-color="#00A0E1"/>
<stop offset="1" stop-color="#00C8C4"/>
</linearGradient>
<linearGradient id="paint17_linear_483_275" x1="-6.20741" y1="-12.5621" x2="259.951" y2="72.3149" gradientUnits="userSpaceOnUse">
<stop stop-color="#00A0E1"/>
<stop offset="1" stop-color="#00C8C4"/>
</linearGradient>
<linearGradient id="paint18_linear_483_275" x1="-4.65124" y1="-17.4644" x2="261.508" y2="67.4294" gradientUnits="userSpaceOnUse">
<stop stop-color="#00A0E1"/>
<stop offset="1" stop-color="#00C8C4"/>
</linearGradient>
<linearGradient id="paint19_linear_483_275" x1="-3.19558" y1="-22.0325" x2="262.963" y2="62.8444" gradientUnits="userSpaceOnUse">
<stop stop-color="#00A0E1"/>
<stop offset="1" stop-color="#00C8C4"/>
</linearGradient>
<linearGradient id="paint20_linear_483_275" x1="-1.75721" y1="-26.5159" x2="264.402" y2="58.3782" gradientUnits="userSpaceOnUse">
<stop stop-color="#00A0E1"/>
<stop offset="1" stop-color="#00C8C4"/>
</linearGradient>
<linearGradient id="paint21_linear_483_275" x1="-0.384459" y1="-30.8335" x2="265.775" y2="54.0604" gradientUnits="userSpaceOnUse">
<stop stop-color="#00A0E1"/>
<stop offset="1" stop-color="#00C8C4"/>
</linearGradient>
</defs>
</svg>
